<svg width="492" height="191" viewBox="0 0 492 191" fill="none" xmlns="http://www.w3.org/2000/svg">
<path d="M0.544001 157.72V122.392L81.44 6.67999H130.336V119.832H151.328V157.72H130.336V191H86.56V157.72H0.544001ZM89.632 54.808L46.624 119.832H89.632V54.808ZM172.77 95C172.77 65.6453 178.402 42.52 189.666 25.624C201.101 8.72799 219.447 0.279984 244.706 0.279984C269.965 0.279984 288.226 8.72799 299.49 25.624C310.925 42.52 316.642 65.6453 316.642 95C316.642 124.696 310.925 147.992 299.49 164.888C288.226 181.784 269.965 190.232 244.706 190.232C219.447 190.232 201.101 181.784 189.666 164.888C178.402 147.992 172.77 124.696 172.77 95ZM273.634 95C273.634 77.7627 271.757 64.536 268.002 55.32C264.247 45.9333 256.482 41.24 244.706 41.24C232.93 41.24 225.165 45.9333 221.41 55.32C217.655 64.536 215.778 77.7627 215.778 95C215.778 106.605 216.461 116.248 217.826 123.928C219.191 131.437 221.922 137.581 226.018 142.36C230.285 146.968 236.514 149.272 244.706 149.272C252.898 149.272 259.042 146.968 263.138 142.36C267.405 137.581 270.221 131.437 271.586 123.928C272.951 116.248 273.634 106.605 273.634 95ZM340.794 157.72V122.392L421.69 6.67999H470.586V119.832H491.578V157.72H470.586V191H426.81V157.72H340.794ZM429.882 54.808L386.874 119.832H429.882V54.808Z" fill="#4855A1"/>
</svg>
