<svg width="12" height="12" viewBox="0 0 12 12" fill="none" xmlns="http://www.w3.org/2000/svg">
<g clip-path="url(#clip0_392_414)">
<path d="M3.43767 6.21429H8.31302V7.35714H3.43767V6.21429ZM4.65651 10.7857H2.21884V1.64286H6.48477V4.5H9.53186V6.27143L10.7507 5.12857V3.92857L7.09418 0.5H2.21884C1.89558 0.5 1.58557 0.620408 1.35699 0.834735C1.12841 1.04906 1 1.33975 1 1.64286V10.7857C1 11.0888 1.12841 11.3795 1.35699 11.5938C1.58557 11.8082 1.89558 11.9286 2.21884 11.9286H4.65651V10.7857ZM3.43767 9.64286H5.93629L6.48477 9.12857V8.5H3.43767V9.64286ZM10.8726 6.78571C10.9335 6.78571 11.0554 6.84286 11.1163 6.9L11.9086 7.64286C12.0305 7.75714 12.0305 7.98571 11.9086 8.1L11.2992 8.67143L10.0194 7.47143L10.6288 6.9C10.6898 6.84286 10.7507 6.78571 10.8726 6.78571ZM10.8726 9.01429L7.15513 12.5H5.87535V11.3L9.5928 7.81429L10.8726 9.01429Z" fill="black"/>
</g>
<defs>
<clipPath id="clip0_392_414">
<rect width="12" height="12" fill="white"/>
</clipPath>
</defs>
</svg>
