<svg width="100" height="101" viewBox="0 0 100 101" fill="none" xmlns="http://www.w3.org/2000/svg">
<g clip-path="url(#clip0_231_790)">
<path fill-rule="evenodd" clip-rule="evenodd" d="M50.1935 46.4266C48.1208 20.7175 26.6 0.5 0.357145 0.5C0.357145 26.6212 20.3877 48.064 45.9266 50.3064C20.2175 52.379 1.14711e-06 73.9 0 100.143C26.1212 100.143 47.5641 80.1125 49.8064 54.5735C51.879 80.2825 73.4 100.5 99.643 100.5C99.643 74.379 79.6125 52.936 54.0735 50.6935C79.7825 48.6208 100 27.1 100 0.857143C73.879 0.857142 52.436 20.8877 50.1935 46.4266ZM49.9988 50.501L50.001 50.5015L50.0015 50.4987C50.0005 50.4987 49.9988 50.4987 49.9988 50.4987V50.501Z" fill="#35C89F"/>
</g>
<defs>
<clipPath id="clip0_231_790">
<rect width="100" height="100" fill="white" transform="translate(0 0.5)"/>
</clipPath>
</defs>
</svg>
