<svg width="500" height="500" viewBox="0 0 500 500" fill="none" xmlns="http://www.w3.org/2000/svg">
<path d="M500 382.398H0V382.648H500V382.398Z" fill="#E6E6E6"/>
<path d="M124.825 397.528H91.7031V397.778H124.825V397.528Z" fill="#E6E6E6"/>
<path d="M81.2223 397.528H62.0293V397.778H81.2223V397.528Z" fill="#E6E6E6"/>
<path d="M210.553 401.208H191.361V401.458H210.553V401.208Z" fill="#E6E6E6"/>
<path d="M310.617 406.791H267.424V407.041H310.617V406.791Z" fill="#E6E6E6"/>
<path d="M258.52 406.791H252.188V407.041H258.52V406.791Z" fill="#E6E6E6"/>
<path d="M453.344 401.208H359.668V401.458H453.344V401.208Z" fill="#E6E6E6"/>
<path d="M237.014 337.8H43.915C40.768 337.8 38.207 335.239 38.207 332.092V60.6599C38.207 57.5129 40.768 54.9519 43.915 54.9519H237.014C240.16 54.9519 242.721 57.5129 242.721 60.6599V332.092C242.721 335.239 240.16 337.8 237.014 337.8ZM43.915 55.2029C40.905 55.2029 38.457 57.6509 38.457 60.6609V332.093C38.457 335.103 40.905 337.551 43.915 337.551H237.014C240.023 337.551 242.471 335.103 242.471 332.093V60.6599C242.471 57.6509 240.023 55.2019 237.014 55.2019L43.915 55.2029Z" fill="#E6E6E6"/>
<path d="M453.311 337.8H260.213C257.067 337.8 254.506 335.239 254.506 332.092V60.6599C254.506 57.5129 257.067 54.9519 260.213 54.9519H453.311C456.459 54.9519 459.019 57.5129 459.019 60.6599V332.092C459.02 335.239 456.459 337.8 453.311 337.8ZM260.213 55.2029C257.204 55.2029 254.756 57.6509 254.756 60.6609V332.093C254.756 335.103 257.204 337.551 260.213 337.551H453.311C456.321 337.551 458.769 335.103 458.769 332.093V60.6599C458.769 57.6509 456.321 55.2019 453.311 55.2019L260.213 55.2029Z" fill="#E6E6E6"/>
<path d="M267.399 296.977H245.41V384.211H267.399V296.977Z" fill="#E0E0E0"/>
<path d="M263.223 384.212H267.399V372.332H258.844L263.223 384.212Z" fill="#FAFAFA"/>
<path d="M171.044 296.977H149.055V384.211H171.044V296.977Z" fill="#E0E0E0"/>
<path d="M267.399 296.977H167.398V376.922H267.399V296.977Z" fill="#FAFAFA"/>
<path d="M263.772 300.907V322.058H171.024V300.907H263.772ZM264.158 300.521H170.637V322.445H264.158V300.521Z" fill="#E0E0E0"/>
<path d="M171.574 384.212H167.398V372.332H175.953L171.574 384.212Z" fill="#FAFAFA"/>
<path d="M215.188 311.482C215.188 312.703 216.178 313.694 217.4 313.694C218.621 313.694 219.611 312.704 219.611 311.482C219.611 310.261 218.622 309.27 217.4 309.27C216.179 309.271 215.188 310.261 215.188 311.482Z" fill="#E6E6E6"/>
<path d="M263.772 326.374V347.525H171.024V326.374H263.772ZM264.158 325.988H170.637V347.912H264.158V325.988Z" fill="#E0E0E0"/>
<path d="M215.188 336.949C215.188 338.17 216.178 339.161 217.4 339.161C218.621 339.161 219.611 338.171 219.611 336.949C219.611 335.727 218.622 334.737 217.4 334.737C216.179 334.738 215.188 335.728 215.188 336.949Z" fill="#E6E6E6"/>
<path d="M263.772 351.841V372.992H171.024V351.841H263.772ZM264.158 351.455H170.637V373.379H264.158V351.455Z" fill="#E0E0E0"/>
<path d="M215.188 362.417C215.188 363.638 216.178 364.629 217.4 364.629C218.621 364.629 219.611 363.639 219.611 362.417C219.611 361.195 218.622 360.205 217.4 360.205C216.179 360.205 215.188 361.195 215.188 362.417Z" fill="#E6E6E6"/>
<path d="M157.61 246.316H135.621V384.212H157.61V246.316Z" fill="#E0E0E0"/>
<path d="M153.434 384.212H157.61V372.332H149.055L153.434 384.212Z" fill="#FAFAFA"/>
<path d="M75.4265 246.316H53.4375V384.212H75.4265V246.316Z" fill="#E0E0E0"/>
<path d="M157.61 246.316H71.7832V376.922H157.61V246.316Z" fill="#FAFAFA"/>
<path d="M153.915 250.014V279.584H75.4784V250.014H153.915ZM154.37 249.559H75.0234V280.04H154.37V249.559Z" fill="#E0E0E0"/>
<path d="M153.915 283.178V361.614H116.554V283.178H153.915ZM154.37 282.723H116.098V362.071H154.37V282.723Z" fill="#E0E0E0"/>
<path d="M112.839 283.178V361.614H75.4784V283.178H112.839ZM113.295 282.723H75.0234V362.071H113.295V282.723Z" fill="#E0E0E0"/>
<path d="M75.9592 384.212H71.7832V372.332H80.3382L75.9592 384.212Z" fill="#FAFAFA"/>
<path d="M112.484 264.799C112.484 266.021 113.474 267.011 114.696 267.011C115.917 267.011 116.908 266.021 116.908 264.799C116.908 263.578 115.918 262.587 114.696 262.587C113.474 262.588 112.484 263.578 112.484 264.799Z" fill="#E6E6E6"/>
<path d="M120.402 320.526C120.402 321.747 121.392 322.738 122.614 322.738C123.836 322.738 124.826 321.748 124.826 320.526C124.826 319.305 123.836 318.314 122.614 318.314C121.392 318.314 120.402 319.304 120.402 320.526Z" fill="#E6E6E6"/>
<path d="M104.566 320.526C104.566 321.747 105.556 322.738 106.778 322.738C107.999 322.738 108.99 321.748 108.99 320.526C108.99 319.305 108 318.314 106.778 318.314C105.557 318.314 104.566 319.304 104.566 320.526Z" fill="#E6E6E6"/>
<path d="M102.074 207.869H92.798C92.798 207.869 94.408 216.444 94.408 221.49C94.408 226.536 87.352 246.316 97.436 246.316C107.519 246.316 100.464 226.535 100.464 221.49C100.463 216.443 102.074 207.869 102.074 207.869Z" fill="#E0E0E0"/>
<path d="M66.8027 228.148V234.175C66.8027 240.852 72.2657 246.315 78.9437 246.315H84.9707C91.6477 246.315 97.1107 240.852 97.1107 234.175V228.148H66.8027Z" fill="#F5F5F5"/>
<path d="M195.668 284.265C195.668 291.257 203.499 296.978 213.07 296.978H221.709C231.281 296.978 239.112 291.257 239.112 284.265H195.668Z" fill="#E0E0E0"/>
<path d="M424.606 274.03C419.366 278.307 412.134 286.139 405.507 297.158C401.093 304.496 398.433 312.185 397.265 322.343C397.29 310.844 397.326 298.489 397.366 286.829C398.697 283.828 401.737 276.913 403.918 271.449C411.195 253.218 413.905 248.735 420.45 233.01C429.179 212.036 438.124 187.149 435.563 189.138C430.344 193.19 410.343 230.642 408.181 236.003C400.745 254.443 398.674 267.884 397.387 280.855C397.427 269.903 397.47 259.847 397.512 252.088C397.646 226.78 398.077 218.612 398.287 216.093C399.096 214.813 400.052 213.321 400.608 212.517C405.306 205.724 407.118 199.937 411.545 189.805C417.818 175.448 423.22 149.958 421.641 151.244C415.065 156.597 409.878 168.106 403.062 182.771C396.247 197.436 398.195 205.869 396.843 218.394C396.559 220.852 396.342 230.127 396.185 242.982C394.417 229.287 391.101 220.262 385.051 212.061C377.609 201.974 370.41 195.16 365.128 191.601C359.846 188.043 374.249 212.821 381.137 223.636C387.271 233.267 392.921 241.766 396.107 250.136C395.938 267.558 395.86 289.62 395.86 310.156C394.28 300.81 391.7 290.747 388.258 282.954C384.122 273.591 377.759 259.23 372.694 254.359C371.477 253.189 377.99 281.119 382.169 288.546C386.349 295.973 389.417 302.972 392.048 307.182C392.662 308.164 394.698 311.952 395.861 314.13C395.872 339.2 396 361.322 396.218 368.852H397.301C397.227 366.909 397.215 354.156 397.238 337.277C399.846 328.112 405.811 317.654 410.733 308.113C416.106 297.697 429.847 269.752 424.606 274.03Z" fill="#E0E0E0"/>
<path d="M412.441 384.212H381.098L378.732 353.488H414.807L412.441 384.212Z" fill="#F0F0F0"/>
<path d="M417.143 357.068H376.396L375.229 346.702H418.31L417.143 357.068Z" fill="#F5F5F5"/>
<path d="M124.259 75.4968H68.207V137.046H124.259V75.4968Z" fill="#E0E0E0"/>
<path d="M130.33 75.4968H72.4316V137.046H130.33V75.4968Z" fill="#F5F5F5"/>
<path d="M125.479 132.195L125.479 80.3472L77.2815 80.3472V132.195H125.479Z" fill="white"/>
<path d="M113.797 119.629V92.915H88.9649V119.629H113.797Z" fill="#F5F5F5"/>
<path d="M410.05 82.6719H357.98V139.849H410.05V82.6719Z" fill="#E0E0E0"/>
<path d="M415.691 82.6719H361.906V139.849H415.691V82.6719Z" fill="#F5F5F5"/>
<path d="M411.184 135.343V87.1785L366.411 87.1785V135.343H411.184Z" fill="white"/>
<path d="M388.798 125.229C396.512 125.229 402.766 118.975 402.766 111.261C402.766 103.547 396.512 97.293 388.798 97.293C381.084 97.293 374.83 103.547 374.83 111.261C374.83 118.975 381.084 125.229 388.798 125.229Z" fill="#F5F5F5"/>
<path d="M182.488 112.197H140.908V157.855H182.488V112.197Z" fill="#E0E0E0"/>
<path d="M186.993 112.197H144.043V157.855H186.993V112.197Z" fill="#F5F5F5"/>
<path d="M183.395 154.257V115.795H147.642V154.257H183.395Z" fill="white"/>
<path d="M165.518 125.303L155.74 142.24H175.296L165.518 125.303Z" fill="#F5F5F5"/>
<path d="M250 427.561C357.082 427.561 443.889 422.492 443.889 416.238C443.889 409.985 357.082 404.915 250 404.915C142.918 404.915 56.1113 409.985 56.1113 416.238C56.1113 422.492 142.918 427.561 250 427.561Z" fill="#F5F5F5"/>
<path d="M349.245 163.432L339.326 159.41C339.326 159.41 326.236 183.283 322.487 184.488C317.385 186.128 306.834 190.687 300.564 191.541C299.719 192.529 298.325 195.645 298.458 196.781C306.87 199.586 325.35 195.861 329.306 192.924C338.324 186.225 349.245 163.432 349.245 163.432Z" fill="#E58A7B"/>
<path d="M352.301 158.015C354.146 164.854 344.127 178.591 344.127 178.591L330.965 171.208C330.965 171.208 333.419 165.561 336.423 159.81C341.274 150.523 350.194 150.21 352.301 158.015Z" fill="#4855A1"/>
<path opacity="0.2" d="M352.301 158.015C354.146 164.854 344.127 178.591 344.127 178.591L330.965 171.208C330.965 171.208 333.419 165.561 336.423 159.81C341.274 150.523 350.194 150.21 352.301 158.015Z" fill="black"/>
<path opacity="0.2" d="M336.211 174.148L341.38 177.046L342.284 161.18C339.284 163.492 337.156 170.449 336.211 174.148Z" fill="black"/>
<path d="M343.662 152.863C343.662 152.863 333.443 175.599 339.401 217.94C351.535 217.94 373.767 217.94 379.671 217.94C380.311 211.758 378.195 181.602 385.865 152.475C385.865 152.475 379.043 151.09 372.484 150.773C367.353 150.525 359.913 150.361 355.365 150.774C349.369 151.318 343.662 152.863 343.662 152.863Z" fill="#4855A1"/>
<path opacity="0.2" d="M343.662 152.863C343.662 152.863 333.443 175.599 339.401 217.94C351.535 217.94 373.767 217.94 379.671 217.94C380.311 211.758 378.195 181.602 385.865 152.475C385.865 152.475 379.043 151.09 372.484 150.773C367.353 150.525 359.913 150.361 355.365 150.774C349.369 151.318 343.662 152.863 343.662 152.863Z" fill="black"/>
<path d="M334.322 417.142C334.259 418.216 349.527 419.086 368.424 419.086C387.321 419.086 402.691 418.216 402.754 417.142C402.817 416.068 387.549 415.198 368.652 415.198C349.755 415.197 334.385 416.068 334.322 417.142Z" fill="#E8ECF1"/>
<path d="M362.141 390.158L354.975 392.919L361.12 408.868L368.286 406.107L362.141 390.158Z" fill="#E58A7B"/>
<path d="M393.051 409.454H385.522L382.76 392.018H390.289L393.051 409.454Z" fill="#E58A7B"/>
<path d="M385.037 408.582H393.496C393.804 408.582 394.058 408.796 394.107 409.096L395.202 415.788C395.316 416.482 394.732 417.139 394.021 417.127C391.071 417.076 389.646 416.903 385.927 416.903C383.639 416.903 378.91 417.141 375.749 417.141C372.658 417.141 372.359 414.016 373.67 413.733C379.545 412.464 381.833 410.714 383.788 409.045C384.14 408.744 384.587 408.582 385.037 408.582Z" fill="#263238"/>
<path d="M359.971 405.946L367.992 403.614C368.292 403.527 368.601 403.656 368.734 403.925L371.706 409.921C372.014 410.542 371.65 411.322 370.954 411.512C368.049 412.305 366.096 412.801 362.459 413.858C359.946 414.588 357.39 415.778 354.907 416.57C353.188 417.118 349.151 417.14 347.06 417.14C343.969 417.14 343.28 413.881 344.605 413.732C347.958 413.356 348.408 413.53 350.259 412.602C353.319 411.067 355.686 409.796 358.335 407.021C358.797 406.539 359.338 406.13 359.971 405.946Z" fill="#263238"/>
<path d="M301.833 191.469L293.548 187.983L290.137 197.161C290.137 197.161 294.918 198.028 300.378 197.161L301.833 191.469Z" fill="#E58A7B"/>
<path d="M287.391 187.758L287.172 193.865L290.137 197.161L293.548 187.983L287.391 187.758Z" fill="#E58A7B"/>
<path d="M362.167 390.14L355 392.906L358.173 401.126L365.34 398.359L362.167 390.14Z" fill="#CF6F64"/>
<path d="M390.29 392.023H382.758L384.186 401.01H391.718L390.29 392.023Z" fill="#CF6F64"/>
<path opacity="0.2" d="M338.123 206.487C338.267 208.296 338.442 210.145 338.657 212.046L368.602 202.325C373.278 200.927 377.347 197.988 380.122 193.971C380.235 191.299 380.389 188.494 380.615 185.565C380.718 184.137 380.841 182.677 380.975 181.198C381.119 179.657 381.283 178.084 381.468 176.502L338.123 206.487Z" fill="black"/>
<path d="M347.899 173.688L346.879 173.567C347.473 168.577 351.198 164.633 355.133 164.727L355.103 165.755C351.706 165.656 348.433 169.213 347.899 173.688Z" fill="white"/>
<path d="M353.228 182.922C353.172 182.922 353.116 182.921 353.059 182.92L353.089 181.892C356.528 182.018 359.759 178.433 360.293 173.958L361.313 174.08C360.727 178.999 357.12 182.922 353.228 182.922Z" fill="white"/>
<path d="M371.919 131.497C370.516 137.005 368.847 147.097 372.485 150.772C372.485 150.772 369.944 156.359 359.709 156.359C350.356 156.359 355.366 150.772 355.366 150.772C361.594 149.305 361.703 144.748 360.884 140.468L371.919 131.497Z" fill="#E58A7B"/>
<path d="M367.42 135.158L360.889 140.465C361.086 141.478 361.226 142.505 361.239 143.503C363.148 145.404 366.98 140.588 367.373 138.131C367.568 136.907 367.586 135.729 367.42 135.158Z" fill="#CF6F64"/>
<path d="M349.663 131.429C350.62 133.143 352.309 134.21 353.905 134.565C356.306 135.1 357.513 132.891 356.851 130.668C356.255 128.667 354.288 125.978 351.875 126.439C349.498 126.894 348.568 129.469 349.663 131.429Z" fill="#CF6F64"/>
<path d="M353.626 113.8C349.886 115.514 348.568 130.371 353.27 132.568C357.972 134.764 360.71 110.555 353.626 113.8Z" fill="#263238"/>
<path d="M373.058 123.208C372.163 130.666 372.016 135.055 368.025 138.883C362.021 144.641 353.015 141.226 351.672 133.781C350.463 127.08 352.13 116.009 359.605 113.041C366.969 110.117 373.953 115.75 373.058 123.208Z" fill="#E58A7B"/>
<path d="M360.774 117.665C366.306 116.25 370.378 115.286 368.925 119.904C366.989 126.056 364.667 132.016 367.782 132.294C369.676 132.463 378.077 128.898 377.01 125.294C376.081 122.154 379.986 121.307 380.706 119.706C383.299 113.94 375.89 114.689 377.208 111.2C378.492 107.803 371.239 102.062 367.22 104.867C360.715 109.408 349.535 109.343 355.413 101.895C359.622 96.561 352.112 97.656 352.112 97.656C352.112 97.656 356.648 100.347 349.013 104.507C340.919 108.915 348.328 120.849 360.774 117.665Z" fill="#263238"/>
<path d="M375.946 131.429C374.787 133.143 372.974 134.21 371.336 134.565C368.872 135.1 367.925 132.891 368.847 130.668C369.678 128.667 371.96 125.978 374.319 126.439C376.642 126.894 377.27 129.469 375.946 131.429Z" fill="#E58A7B"/>
<path d="M339.4 217.94C339.4 217.94 332.641 278.437 332.113 301.397C331.565 325.279 355.021 399.791 355.021 399.791L367.032 394.747C367.032 394.747 353.047 326.674 354.99 303.219C357.108 277.65 365.871 217.939 365.871 217.939H339.4V217.94Z" fill="#4855A1"/>
<path opacity="0.2" d="M356.198 234.551C350.813 245.731 354.441 267.835 357.359 280.938C358.469 271.689 359.784 261.65 361.038 252.36C360.915 238.076 359.805 227.05 356.198 234.551Z" fill="black"/>
<path d="M366.49 390.826C366.546 390.803 367.914 394.654 367.914 394.654L354.07 400.467L351.889 396.412L366.49 390.826Z" fill="#4855A1"/>
<path d="M353.686 217.94C353.686 217.94 358.857 275.478 362.284 297.034C366.037 320.639 380.779 399.27 380.779 399.27H394.569C394.569 399.27 386.306 322.545 384.745 299.174C383.051 273.808 379.67 217.94 379.67 217.94H353.686Z" fill="#4855A1"/>
<path d="M394.78 395.677C394.839 395.677 395.241 399.531 395.241 399.531H380.084L379.002 395.107L394.78 395.677Z" fill="#4855A1"/>
<path opacity="0.2" d="M389.496 391.122C389.431 391.122 389.376 391.073 389.369 391.008C389.294 390.31 381.843 321.041 380.441 300.043C378.92 277.256 375.861 226.731 375.83 226.223C375.826 226.152 375.88 226.091 375.95 226.087C375.953 226.087 375.956 226.087 375.958 226.087C376.025 226.087 376.083 226.14 376.087 226.208C376.117 226.715 379.176 277.24 380.698 300.025C382.099 321.019 389.549 390.283 389.624 390.98C389.632 391.051 389.581 391.114 389.511 391.121C389.505 391.122 389.5 391.122 389.496 391.122Z" fill="black"/>
<path d="M361.624 125.293C361.588 125.9 361.238 126.393 360.841 126.393C360.444 126.393 360.151 125.901 360.187 125.293C360.222 124.686 360.573 124.193 360.97 124.193C361.367 124.193 361.66 124.686 361.624 125.293Z" fill="#263238"/>
<path d="M354.76 125.293C354.724 125.9 354.374 126.393 353.977 126.393C353.58 126.393 353.287 125.901 353.323 125.293C353.359 124.686 353.709 124.193 354.106 124.193C354.503 124.193 354.796 124.686 354.76 125.293Z" fill="#263238"/>
<path d="M356.925 125.595C356.925 125.595 355.339 129.099 353.719 130.789C354.735 131.792 356.588 131.333 356.588 131.333L356.925 125.595Z" fill="#DF5753"/>
<path d="M357.098 133.881C357 133.881 356.924 133.801 356.93 133.703C356.936 133.605 357.021 133.525 357.119 133.525C359.785 133.525 361.138 131.663 361.152 131.644C361.212 131.562 361.324 131.538 361.402 131.592C361.481 131.646 361.498 131.756 361.439 131.839C361.379 131.921 359.955 133.881 357.098 133.881Z" fill="#263238"/>
<path d="M362.845 123.446C362.742 123.486 362.626 123.48 362.53 123.419C361.218 122.593 359.995 123.147 359.983 123.154C359.815 123.24 359.592 123.165 359.517 122.987C359.442 122.809 359.53 122.596 359.712 122.511C359.777 122.48 361.308 121.785 362.936 122.81C363.099 122.913 363.139 123.132 363.027 123.3C362.981 123.368 362.916 123.418 362.845 123.446Z" fill="#263238"/>
<path d="M352.106 121.451C352.057 121.437 352.009 121.412 351.97 121.374C351.83 121.244 351.83 121.019 351.97 120.871C353.366 119.396 354.984 119.621 355.052 119.631C355.242 119.652 355.369 119.841 355.328 120.036C355.287 120.23 355.099 120.364 354.907 120.336C354.853 120.328 353.59 120.167 352.475 121.344C352.376 121.45 352.231 121.487 352.106 121.451Z" fill="#263238"/>
<path d="M389.731 162.317L379.328 159.548C379.328 159.548 369.128 184.656 365.525 186.295C360.622 188.526 348.208 196.242 342.932 199.963C342.639 201.207 342.869 204.523 343.533 205.426C352.504 203.796 369.763 197.161 373.362 193.788C381.568 186.099 389.731 162.317 389.731 162.317Z" fill="#E58A7B"/>
<path d="M382.47 409.897C381.897 409.897 381.367 409.799 381.043 409.514C380.786 409.287 380.681 408.969 380.73 408.571C380.766 408.274 380.931 408.133 381.065 408.067C381.914 407.641 384.263 409.131 384.528 409.303C384.586 409.342 384.614 409.413 384.599 409.484C384.583 409.554 384.527 409.611 384.456 409.627C383.925 409.753 383.166 409.897 382.47 409.897ZM381.443 408.339C381.35 408.339 381.271 408.353 381.209 408.384C381.16 408.409 381.101 408.455 381.085 408.593C381.05 408.877 381.116 409.089 381.289 409.241C381.68 409.588 382.66 409.634 383.954 409.376C383.132 408.884 382.02 408.339 381.443 408.339Z" fill="#4855A1"/>
<path d="M384.415 409.632C384.386 409.632 384.357 409.625 384.331 409.611C383.576 409.187 382.167 407.538 382.376 406.698C382.413 406.546 382.541 406.283 382.971 406.231C383.252 406.196 383.501 406.274 383.717 406.459C384.55 407.174 384.602 409.347 384.604 409.439C384.606 409.504 384.571 409.567 384.514 409.602C384.483 409.622 384.449 409.632 384.415 409.632ZM383.075 406.58C383.049 406.58 383.022 406.583 382.994 406.586C382.761 406.614 382.734 406.721 382.723 406.766C382.599 407.262 383.486 408.509 384.226 409.097C384.175 408.462 384.009 407.195 383.476 406.737C383.353 406.631 383.222 406.58 383.075 406.58Z" fill="#4855A1"/>
<path d="M355.916 408.653C355.18 408.831 354.478 408.884 354.03 408.641C353.745 408.487 353.581 408.229 353.543 407.878C353.52 407.668 353.591 407.485 353.746 407.348C354.552 406.631 357.814 407.402 358.184 407.492C358.256 407.51 358.307 407.572 358.31 407.648C358.313 407.724 358.269 407.795 358.198 407.828C357.593 408.102 356.733 408.455 355.916 408.653ZM354.29 407.465C354.153 407.498 354.045 407.545 353.974 407.608C353.911 407.664 353.888 407.728 353.898 407.82C353.924 408.058 354.028 408.224 354.214 408.326C354.745 408.615 355.978 408.386 357.565 407.722C356.45 407.488 354.992 407.294 354.29 407.465Z" fill="#4855A1"/>
<path d="M358.166 407.838C358.141 407.844 358.116 407.844 358.091 407.841C357.122 407.661 355.052 406.511 355.033 405.65C355.028 405.449 355.123 405.173 355.597 405.009C355.941 404.88 356.295 404.906 356.627 405.069C357.714 405.605 358.282 407.525 358.306 407.606C358.323 407.666 358.307 407.732 358.263 407.781C358.236 407.81 358.202 407.829 358.166 407.838ZM355.801 405.312C355.767 405.32 355.732 405.332 355.696 405.343C355.386 405.452 355.389 405.579 355.389 405.621C355.401 406.137 356.838 407.087 357.853 407.407C357.651 406.855 357.165 405.741 356.453 405.39C356.239 405.284 356.024 405.258 355.801 405.312Z" fill="#4855A1"/>
<path d="M343.779 199.372L333.351 204.172L332.141 207.114L335.995 209.707C335.995 209.707 343.187 208.924 345.236 204.303L343.779 199.372Z" fill="#E58A7B"/>
<path d="M344.221 205.596C343.569 201.722 342.295 199.955 342.283 199.938L343.927 198.705C343.991 198.79 345.502 200.83 346.248 205.255L344.221 205.596Z" fill="#263238"/>
<path d="M345.998 200.791C346.336 201.628 345.793 202.636 344.784 203.044C343.775 203.452 342.684 203.104 342.346 202.267C342.008 201.43 342.551 200.422 343.56 200.014C344.568 199.607 345.66 199.954 345.998 200.791Z" fill="#263238"/>
<path d="M326.305 208.048L327.69 209.451L337.047 205.449L333.351 204.173L326.305 208.048Z" fill="#E58A7B"/>
<path opacity="0.2" d="M366.49 390.826C366.546 390.803 367.914 394.654 367.914 394.654L354.07 400.467L351.889 396.412L366.49 390.826Z" fill="black"/>
<path opacity="0.2" d="M394.78 395.677C394.839 395.677 395.241 399.531 395.241 399.531H380.084L379.002 395.107L394.78 395.677Z" fill="black"/>
<path d="M392.441 159.439C395.192 168.306 384.481 180.419 384.481 180.419L369.633 174.359C369.633 174.359 371.725 167.917 375.706 159.286C380.232 149.477 389.664 150.49 392.441 159.439Z" fill="#4855A1"/>
<path opacity="0.2" d="M392.441 159.439C395.192 168.306 384.481 180.419 384.481 180.419L369.633 174.359C369.633 174.359 371.725 167.917 375.706 159.286C380.232 149.477 389.664 150.49 392.441 159.439Z" fill="black"/>
<path d="M244.873 70.5701H238.486V71.5981H244.873V70.5701Z" fill="#4855A1"/>
<path d="M327.603 111.33L326.83 128.489L327.856 128.535L328.629 111.377L327.603 111.33Z" fill="#4855A1"/>
<path d="M325.613 75.1941H207.614L196.629 320.913H314.628L325.613 75.1941Z" fill="#4855A1"/>
<path opacity="0.56" d="M322.09 78.5662H204.091L193.107 324.285H311.106L322.09 78.5662Z" fill="#FAFAFA"/>
<path opacity="0.07" d="M318.567 81.938H200.569L189.584 327.657H307.583L318.567 81.938Z" fill="#4855A1"/>
<path d="M305.136 189.106H204.419L203.578 207.912H304.296L305.136 189.106Z" fill="white"/>
<path d="M259.815 175.39H205.032L204.656 183.804H259.438L259.815 175.39Z" fill="#4855A1"/>
<path d="M302.868 239.849H202.15L201.309 258.655H302.027L302.868 239.849Z" fill="white"/>
<path opacity="0.47" d="M284.398 284.036H216.669L215.662 306.575H283.39L284.398 284.036Z" fill="#4855A1"/>
<path d="M279.868 310.066H212.14C212.108 310.066 212.077 310.052 212.054 310.029C212.032 310.006 212.02 309.974 212.022 309.942L213.03 287.403C213.032 287.339 213.085 287.289 213.148 287.289H280.876C280.908 287.289 280.939 287.303 280.962 287.326C280.984 287.349 280.996 287.381 280.994 287.413L279.986 309.952C279.984 310.016 279.931 310.066 279.868 310.066ZM212.264 309.828H279.754L280.75 287.527H213.26L212.264 309.828Z" fill="white"/>
<path d="M247.978 226.134H202.763L202.387 234.548H247.601L247.978 226.134Z" fill="#4855A1"/>
<path d="M283.106 128.379C282.854 134.01 280.813 139.21 277.541 143.434C272.6 149.836 264.861 153.998 256.342 153.998C247.823 153.998 240.466 149.836 236.098 143.434C233.204 139.21 231.628 134.011 231.88 128.379C232.513 114.229 244.493 102.761 258.633 102.761C272.783 102.76 283.738 114.229 283.106 128.379Z" fill="white"/>
<path d="M285.515 108.123C285.448 109.619 284.906 111.001 284.036 112.123C282.723 113.824 280.667 114.93 278.403 114.93C276.139 114.93 274.185 113.824 273.024 112.123C272.255 111.001 271.836 109.619 271.903 108.123C272.071 104.363 275.255 101.316 279.012 101.316C282.772 101.316 285.683 104.363 285.515 108.123Z" fill="#4855A1"/>
<path d="M215.264 198.509C215.19 200.173 213.78 201.522 212.116 201.522C210.452 201.522 209.163 200.173 209.237 198.509C209.311 196.845 210.721 195.496 212.385 195.496C214.05 195.495 215.339 196.845 215.264 198.509Z" fill="#263238"/>
<path d="M228.753 198.509C228.679 200.173 227.269 201.522 225.605 201.522C223.941 201.522 222.652 200.173 222.726 198.509C222.8 196.845 224.21 195.496 225.874 195.496C227.538 195.496 228.828 196.845 228.753 198.509Z" fill="#263238"/>
<path d="M242.239 198.509C242.165 200.173 240.755 201.522 239.091 201.522C237.427 201.522 236.138 200.173 236.212 198.509C236.286 196.845 237.696 195.496 239.36 195.496C241.024 195.495 242.313 196.845 242.239 198.509Z" fill="#263238"/>
<path d="M212.997 249.252C212.923 250.916 211.513 252.265 209.849 252.265C208.185 252.265 206.896 250.916 206.97 249.252C207.044 247.588 208.454 246.238 210.118 246.238C211.782 246.239 213.071 247.588 212.997 249.252Z" fill="#263238"/>
<path d="M226.483 249.252C226.409 250.916 224.999 252.265 223.335 252.265C221.671 252.265 220.382 250.916 220.456 249.252C220.53 247.588 221.94 246.238 223.604 246.238C225.269 246.239 226.557 247.588 226.483 249.252Z" fill="#263238"/>
<path d="M239.971 249.252C239.897 250.916 238.487 252.265 236.823 252.265C235.159 252.265 233.87 250.916 233.944 249.252C234.018 247.588 235.428 246.238 237.092 246.238C238.756 246.238 240.046 247.588 239.971 249.252Z" fill="#263238"/>
<path d="M253.46 249.252C253.386 250.916 251.976 252.265 250.312 252.265C248.648 252.265 247.359 250.916 247.433 249.252C247.507 247.588 248.917 246.238 250.581 246.238C252.245 246.239 253.534 247.588 253.46 249.252Z" fill="#263238"/>
<path d="M266.946 249.252C266.872 250.916 265.462 252.265 263.798 252.265C262.134 252.265 260.845 250.916 260.919 249.252C260.993 247.588 262.403 246.238 264.067 246.238C265.731 246.239 267.02 247.588 266.946 249.252Z" fill="#263238"/>
<path d="M268.236 119.816C267.979 125.538 263.134 130.177 257.411 130.177C251.689 130.177 247.257 125.538 247.513 119.816C247.769 114.093 252.615 109.455 258.338 109.455C264.06 109.455 268.492 114.094 268.236 119.816Z" fill="#4855A1"/>
<path d="M277.541 143.433C272.6 149.835 264.861 153.997 256.342 153.997C247.823 153.997 240.466 149.835 236.098 143.433C240.959 138.593 248.653 135.449 257.172 135.449C265.7 135.449 273.113 138.593 277.541 143.433Z" fill="#4855A1"/>
<path opacity="0.1" d="M268.236 119.816C267.979 125.538 263.134 130.177 257.411 130.177C251.689 130.177 247.257 125.538 247.513 119.816C247.769 114.093 252.615 109.455 258.338 109.455C264.06 109.455 268.492 114.094 268.236 119.816Z" fill="white"/>
<path opacity="0.1" d="M277.541 143.433C272.6 149.835 264.861 153.997 256.342 153.997C247.823 153.997 240.466 149.835 236.098 143.433C240.959 138.593 248.653 135.449 257.172 135.449C265.7 135.449 273.113 138.593 277.541 143.433Z" fill="white"/>
<path d="M130.409 212.443C129.462 214.52 128.465 216.805 127.59 219.034C126.708 221.284 125.828 223.536 125.061 225.82C123.571 230.388 122.174 234.998 121.486 239.621L121.258 241.093C121.24 241.27 121.253 241.522 121.331 241.838C121.477 242.473 121.873 243.323 122.43 244.157C123.556 245.844 125.152 247.552 126.873 249.138C128.59 250.749 130.455 252.29 132.393 253.753C134.312 255.229 136.336 256.674 138.316 258.028L136.452 261.537C131.694 259.457 127.263 256.97 122.971 253.849C120.861 252.241 118.777 250.51 116.931 248.17C116.021 246.99 115.126 245.657 114.54 243.897C114.256 243.019 114.058 242.026 114.057 240.952C114.064 240.705 114.077 240.358 114.094 240.192L114.143 239.695L114.243 238.701C114.787 233.4 115.961 228.305 117.508 223.363C118.288 220.895 119.12 218.452 120.07 216.055C121.04 213.642 121.997 211.326 123.21 208.897L130.409 212.443Z" fill="#E58A7B"/>
<path d="M136.915 257.432L143.981 253.847L142.156 261.613C142.156 261.613 137.304 262.968 135.047 260.614L136.915 257.432Z" fill="#E58A7B"/>
<path d="M150.453 255.122L148.573 261.542L142.156 261.614L143.982 253.847L150.453 255.122Z" fill="#E58A7B"/>
<path d="M160.434 175.001C160.434 175.001 161.047 177.255 162.019 178.954C161.184 179.734 160.434 179.463 160.434 179.463V175.001Z" fill="#DF5753"/>
<path d="M160.226 175.06C160.639 175.06 160.975 174.547 160.975 173.914C160.975 173.281 160.639 172.768 160.226 172.768C159.812 172.768 159.477 173.281 159.477 173.914C159.477 174.547 159.812 175.06 160.226 175.06Z" fill="#263238"/>
<path d="M160.041 172.803L161.561 172.365C161.561 172.365 160.781 173.553 160.041 172.803Z" fill="#263238"/>
<path d="M140.899 182.336C141.812 186.991 142.723 195.521 139.465 198.627C139.465 198.627 140.738 203.349 149.388 203.349C158.9 203.349 153.934 198.627 153.934 198.627C148.743 197.387 148.877 193.536 149.781 189.919L140.899 182.336Z" fill="#E58A7B"/>
<path d="M138.375 171.742C138.852 179.514 138.888 182.813 142.814 186.802C148.718 192.802 158.159 190.516 160.014 182.759C161.683 175.776 160.622 164.24 153.015 161.147C145.519 158.1 137.897 163.97 138.375 171.742Z" fill="#E58A7B"/>
<path d="M139.141 162.948C135.244 164.369 130.045 163.312 132.085 175.341C134.245 188.078 130.92 192.268 130.92 192.268C130.92 192.268 145.712 195.419 160.812 192.08C160.812 192.08 156.202 184.018 157.496 178.135C159.146 170.632 157.838 167.859 157.838 167.859C157.838 167.859 144.621 160.95 139.141 162.948Z" fill="#263238"/>
<path d="M155.641 175.792C155.625 177.332 156.165 178.883 156.865 179.96C157.918 181.581 159.168 180.921 159.481 179.238C159.763 177.724 159.554 175.056 158.205 174.021C156.877 173.003 155.66 174.032 155.641 175.792Z" fill="#E58A7B"/>
<path d="M135.756 164.309C134.631 161.164 139.975 156.327 151.273 158.339C162.571 160.351 163.067 169.747 163.067 169.747L160.781 167.034L160.884 169.891L149.273 172.122L135.756 164.309Z" fill="#263238"/>
<path d="M136.713 199.156C136.557 198.195 137.203 197.29 138.163 197.132C141.681 196.551 149.677 195.375 153.702 195.932C156.692 196.346 157.483 198.092 157.609 199.52C157.703 200.579 156.827 201.472 155.765 201.424L138.376 200.638C137.541 200.6 136.846 199.982 136.713 199.156Z" fill="#4855A1"/>
<path opacity="0.6" d="M136.713 199.156C136.557 198.195 137.203 197.29 138.163 197.132C141.681 196.551 149.677 195.375 153.702 195.932C156.692 196.346 157.483 198.092 157.609 199.52C157.703 200.579 156.827 201.472 155.765 201.424L138.376 200.638C137.541 200.6 136.846 199.982 136.713 199.156Z" fill="black"/>
<path d="M146.762 373.862L153.207 378.336L163.999 363.71L157.554 359.236L146.762 373.862Z" fill="#E58A7B"/>
<path d="M131.717 373.566L138.535 377.449L148.086 361.98L141.269 358.098L131.717 373.566Z" fill="#E58A7B"/>
<path d="M163.994 363.713L158.433 371.253L151.986 366.777L157.547 359.237L163.994 363.713Z" fill="#CF6F64"/>
<path d="M141.265 358.101L148.085 361.985L143.158 369.957L136.338 366.073L141.265 358.101Z" fill="#CF6F64"/>
<path d="M152.2 247.988C152.2 247.988 177.38 279.723 172.656 310.07C168.84 334.582 146.743 367.773 146.743 367.773L136.353 362.609C136.353 362.609 147.642 340.551 155.055 317.168C158.164 307.362 156.839 296.559 151.027 288.071C138.272 269.441 117.837 280.526 131.583 247.989L152.2 247.988Z" fill="#4855A1"/>
<path opacity="0.6" d="M152.2 247.988C152.2 247.988 177.38 279.723 172.656 310.07C168.84 334.582 146.743 367.773 146.743 367.773L136.353 362.609C136.353 362.609 147.642 340.551 155.055 317.168C158.164 307.362 156.839 296.559 151.027 288.071C138.272 269.441 117.837 280.526 131.583 247.989L152.2 247.988Z" fill="black"/>
<path opacity="0.4" d="M164.551 268.38L160.893 264.742C160.893 265.03 167.984 308.796 169.977 321.096C171.179 317.325 172.104 313.605 172.659 310.07C174.971 295.211 170.11 280.013 164.551 268.38Z" fill="black"/>
<path d="M163.445 247.988C163.445 247.988 193.764 287.868 194.617 311.783C195.332 331.821 161.592 370.528 161.592 370.528L151.797 364.191C151.797 364.191 171.526 336.674 176.493 314.18C174.599 291.915 133.951 247.987 133.951 247.987H163.445V247.988Z" fill="#4855A1"/>
<path opacity="0.6" d="M163.445 247.988C163.445 247.988 193.764 287.868 194.617 311.783C195.332 331.821 161.592 370.528 161.592 370.528L151.797 364.191C151.797 364.191 171.526 336.674 176.493 314.18C174.599 291.915 133.951 247.987 133.951 247.987H163.445V247.988Z" fill="black"/>
<path d="M125.934 200.41C122.687 201.176 119.584 212.963 119.584 212.963L132.247 221.416C132.247 221.416 136.467 212.1 134.994 208.019C133.459 203.769 130.034 199.443 125.934 200.41Z" fill="#4855A1"/>
<path opacity="0.2" d="M128.412 207.994L127.527 218.263L132.241 221.418C132.241 221.418 134.45 216.537 135.108 212.283L128.412 207.994Z" fill="black"/>
<path d="M167.196 200.637C167.196 200.637 170.933 201.953 163.447 247.988C150.803 247.988 137.736 247.988 131.584 247.988C132.119 235.02 132.134 227.023 125.936 200.41C125.936 200.41 132.612 198.958 139.466 198.627C144.828 198.369 149.221 198.197 153.935 198.628C160.149 199.195 167.196 200.637 167.196 200.637Z" fill="#4855A1"/>
<path d="M170.431 207.947C171.153 209.942 171.917 212.1 172.712 214.172C173.475 216.275 174.267 218.374 175.084 220.464L177.536 226.745L178.156 228.315L178.467 229.1L178.623 229.492C178.65 229.562 178.645 229.556 178.635 229.549C178.592 229.53 178.555 229.332 177.935 228.925C177.631 228.736 177.121 228.554 176.629 228.544C176.134 228.526 175.742 228.647 175.517 228.745C175.066 228.96 175.059 229.053 175.069 229.038C175.098 229.023 175.191 228.934 175.293 228.811C175.73 228.286 176.258 227.381 176.721 226.481C177.194 225.564 177.641 224.584 178.086 223.59C178.971 221.597 179.776 219.517 180.595 217.434C181.405 215.345 182.168 213.225 182.924 211.099L185.2 204.717L189.053 205.688C188.291 210.253 187.305 214.724 186.13 219.211C185.556 221.459 184.892 223.688 184.133 225.938C183.755 227.065 183.332 228.189 182.846 229.335C182.341 230.49 181.84 231.629 180.946 232.952C180.711 233.287 180.445 233.641 180.074 234.031C179.682 234.415 179.229 234.879 178.252 235.318C177.766 235.527 177.09 235.712 176.31 235.681C175.533 235.659 174.745 235.383 174.2 235.045C173.092 234.337 172.709 233.663 172.381 233.157C172.229 232.903 172.099 232.641 172.009 232.452L171.819 232.064L171.439 231.288L170.683 229.735C169.695 227.654 168.727 225.562 167.81 223.447C166.902 221.327 166.017 219.195 165.159 217.047C164.338 214.866 163.526 212.753 162.803 210.433L170.431 207.947Z" fill="#E58A7B"/>
<path d="M167.194 200.637C171.024 201.549 175.327 212.865 175.327 212.865L163.945 222.564C163.945 222.564 156.568 210.225 158.061 206.151C159.615 201.908 162.191 199.445 167.194 200.637Z" fill="#4855A1"/>
<path d="M186.977 201.189L190.972 197.848L193.751 202.177L191.704 205.792C191.704 205.792 188.444 208.776 185.558 207.258C184.626 205.145 185.205 202.671 186.977 201.189Z" fill="#E58A7B"/>
<path d="M198.223 197.858L197.924 198.947L191.595 200.01L190.971 197.848L198.223 197.858Z" fill="#E58A7B"/>
<path d="M162.403 371.053L150.984 363.667L153.029 360.111L165.862 368L162.403 371.053Z" fill="#4855A1"/>
<path d="M142.985 376.926C142.077 376.926 140.882 376.35 140.158 375.948C140.093 375.912 140.056 375.841 140.064 375.766C140.071 375.693 140.122 375.631 140.192 375.607C140.5 375.51 143.209 374.68 143.976 375.324C144.097 375.426 144.232 375.614 144.189 375.927C144.133 376.342 143.943 376.635 143.625 376.793C143.441 376.885 143.223 376.926 142.985 376.926ZM140.736 375.835C141.978 376.467 142.978 376.7 143.459 376.461C143.664 376.359 143.782 376.168 143.822 375.877C143.843 375.72 143.788 375.651 143.737 375.609C143.334 375.27 141.832 375.534 140.736 375.835Z" fill="#263238"/>
<path d="M140.249 375.97C140.199 375.97 140.152 375.95 140.117 375.914C140.071 375.866 140.054 375.798 140.072 375.734C140.098 375.642 140.722 373.47 141.749 372.975C142.023 372.844 142.301 372.837 142.573 372.95C143.005 373.132 143.048 373.448 143.033 373.619C142.963 374.518 141.13 375.76 140.294 375.964C140.28 375.968 140.264 375.97 140.249 375.97ZM142.187 373.243C142.095 373.243 142.003 373.266 141.909 373.311C141.297 373.606 140.782 374.778 140.536 375.491C141.416 375.121 142.618 374.139 142.661 373.591C142.668 373.502 142.647 373.386 142.426 373.294C142.347 373.26 142.267 373.243 142.187 373.243Z" fill="#263238"/>
<path d="M157.27 381.247C156.144 381.247 154.574 379.8 153.715 378.911C153.66 378.854 153.647 378.769 153.682 378.698C153.718 378.628 153.808 378.588 153.872 378.597C154.268 378.648 157.746 379.118 158.237 380.1C158.331 380.29 158.323 380.492 158.214 380.685C158.03 381.009 157.763 381.195 157.422 381.238C157.373 381.244 157.322 381.247 157.27 381.247ZM154.373 379.045C155.637 380.273 156.741 380.953 157.376 380.868C157.598 380.84 157.766 380.721 157.891 380.501C157.939 380.417 157.943 380.343 157.904 380.266C157.637 379.732 155.78 379.271 154.373 379.045Z" fill="#263238"/>
<path d="M154.482 379.014C154.225 379.014 153.995 378.998 153.814 378.964C153.75 378.952 153.696 378.907 153.673 378.846C153.651 378.784 153.662 378.714 153.704 378.663C153.761 378.594 155.114 376.963 156.392 376.851C156.792 376.82 157.131 376.926 157.421 377.174C157.814 377.511 157.787 377.811 157.695 378.003C157.378 378.669 155.65 379.014 154.482 379.014ZM154.224 378.639C155.341 378.701 157.127 378.33 157.36 377.843C157.38 377.802 157.439 377.678 157.18 377.457C156.964 377.272 156.714 377.195 156.425 377.221C155.586 377.295 154.649 378.185 154.224 378.639Z" fill="#263238"/>
<path d="M140.522 374.918L132.04 372.52C131.731 372.433 131.42 372.576 131.292 372.865L128.429 379.302C128.132 379.97 128.544 380.798 129.26 380.987C132.231 381.772 133.705 382.001 137.435 383.056C139.73 383.705 143.015 384.891 146.184 385.786C149.283 386.662 150.407 383.596 149.168 382.939C143.611 379.994 143.173 377.975 141.653 375.738C141.379 375.335 140.974 375.046 140.522 374.918Z" fill="#4855A1"/>
<path d="M153.947 377.743L146.707 372.716C146.443 372.533 146.103 372.568 145.887 372.799L141.085 377.955C140.587 378.49 140.708 379.407 141.323 379.818C143.877 381.527 145.197 382.223 148.381 384.434C150.34 385.794 154.25 388.81 156.955 390.688C159.601 392.525 161.661 389.991 160.703 388.967C156.407 384.375 155.459 381.497 154.75 378.886C154.621 378.416 154.332 378.01 153.947 377.743Z" fill="#4855A1"/>
<path d="M148.077 368.436L135.02 361.947L136.372 358.414L150.308 365.245L148.077 368.436Z" fill="#4855A1"/>
<path d="M131.106 246.118L130.001 248.97C129.889 249.191 130.151 249.417 130.52 249.417H163.603C163.89 249.417 164.128 249.276 164.146 249.096L164.433 246.244C164.453 246.046 164.204 245.879 163.89 245.879H131.624C131.388 245.879 131.178 245.976 131.106 246.118Z" fill="#4855A1"/>
<path opacity="0.4" d="M131.106 246.118L130.001 248.97C129.889 249.191 130.151 249.417 130.52 249.417H163.603C163.89 249.417 164.128 249.276 164.146 249.096L164.433 246.244C164.453 246.046 164.204 245.879 163.89 245.879H131.624C131.388 245.879 131.178 245.976 131.106 246.118Z" fill="white"/>
<path d="M136.308 249.726H135.444C135.272 249.726 135.141 249.637 135.153 249.529L135.558 245.824C135.57 245.716 135.72 245.627 135.893 245.627H136.757C136.929 245.627 137.06 245.716 137.048 245.824L136.643 249.529C136.631 249.638 136.48 249.726 136.308 249.726Z" fill="#4855A1"/>
<path d="M156.714 249.726H155.85C155.678 249.726 155.547 249.637 155.559 249.529L155.964 245.824C155.976 245.716 156.126 245.627 156.299 245.627H157.163C157.335 245.627 157.466 245.716 157.454 245.824L157.049 249.529C157.037 249.638 156.886 249.726 156.714 249.726Z" fill="#4855A1"/>
<path d="M135.547 419.087C150.343 419.087 162.338 418.217 162.338 417.143C162.338 416.07 150.343 415.199 135.547 415.199C120.751 415.199 108.756 416.07 108.756 417.143C108.756 418.217 120.751 419.087 135.547 419.087Z" fill="#F5F5F5"/>
<path d="M151.875 414.4C147.135 413.024 141.918 411.251 138.69 409.366C138.6 409.314 138.505 409.276 138.414 409.228V387.799H147.948C149.525 387.799 150.803 386.521 150.803 384.944C150.803 383.368 149.525 382.09 147.948 382.09H138.414V284.267H132.705V382.09H123.171C121.595 382.09 120.317 383.368 120.317 384.944C120.317 386.521 121.595 387.799 123.171 387.799H132.705V409.227C132.614 409.275 132.519 409.312 132.429 409.365C129.201 411.25 123.984 413.023 119.244 414.399C117.689 414.85 118.017 417.141 119.636 417.141H135.559H151.482C153.102 417.142 153.43 414.851 151.875 414.4Z" fill="#E0E0E0"/>
<path d="M153.341 295.247H117.776C114.927 295.247 112.596 292.916 112.596 290.067V279.494C112.596 276.645 114.927 274.314 117.776 274.314H153.341C156.19 274.314 158.521 276.645 158.521 279.494V290.067C158.521 292.916 156.19 295.247 153.341 295.247Z" fill="#4855A1"/>
<path d="M117.449 295.247V297.067C117.449 298.567 119.082 299.795 121.077 299.795H150.04C152.035 299.795 153.668 298.568 153.668 297.067V295.247H117.449Z" fill="#4855A1"/>
<path opacity="0.3" d="M117.449 295.247V297.067C117.449 298.567 119.082 299.795 121.077 299.795H150.04C152.035 299.795 153.668 298.568 153.668 297.067V295.247H117.449Z" fill="white"/>
</svg>
