<svg width="12" height="12" viewBox="0 0 12 12" fill="none" xmlns="http://www.w3.org/2000/svg">
<path d="M5.2 5.7C4.80218 5.7 4.42064 5.54197 4.13934 5.26066C3.85804 4.97936 3.7 4.59783 3.7 4.2C3.7 3.80218 3.85804 3.42064 4.13934 3.13934C4.42064 2.85804 4.80218 2.7 5.2 2.7C5.59782 2.7 5.97936 2.85804 6.26066 3.13934C6.54196 3.42064 6.7 3.80218 6.7 4.2C6.7 4.39698 6.6612 4.59204 6.58582 4.77403C6.51044 4.95601 6.39995 5.12137 6.26066 5.26066C6.12137 5.39995 5.95601 5.51044 5.77402 5.58582C5.59204 5.6612 5.39698 5.7 5.2 5.7ZM5.2 0C4.08609 0 3.0178 0.442499 2.23015 1.23015C1.4425 2.0178 1 3.08609 1 4.2C1 7.35 5.2 12 5.2 12C5.2 12 9.4 7.35 9.4 4.2C9.4 3.08609 8.9575 2.0178 8.16985 1.23015C7.38219 0.442499 6.31391 0 5.2 0Z" fill="black"/>
</svg>
