<svg width="100" height="100" viewBox="0 0 100 100" fill="none" xmlns="http://www.w3.org/2000/svg">
<circle cx="49.5" cy="49.5" r="27.5" fill="#4855A1"/>
<g clip-path="url(#clip0_231_804)">
<path d="M50 38.75C49.1347 38.75 48.2888 38.4934 47.5694 38.0127C46.8499 37.532 46.2892 36.8487 45.958 36.0492C45.6269 35.2498 45.5403 34.3701 45.7091 33.5215C45.8779 32.6728 46.2946 31.8933 46.9064 31.2814C47.5183 30.6696 48.2978 30.2529 49.1465 30.0841C49.9951 29.9153 50.8748 30.0019 51.6742 30.333C52.4737 30.6642 53.1569 31.2249 53.6377 31.9444C54.1184 32.6638 54.375 33.5097 54.375 34.375C54.3738 35.5349 53.9124 36.647 53.0922 37.4672C52.272 38.2874 51.1599 38.7488 50 38.75Z" fill="white"/>
<path d="M63.75 38.8124L63.7149 38.8218L63.682 38.8319C63.6039 38.8538 63.5258 38.8772 63.4477 38.9015C61.9938 39.328 54.9375 41.3171 49.9664 41.3171C45.3469 41.3171 38.9289 39.5983 36.8758 39.0147C36.6715 38.9357 36.4628 38.8684 36.2508 38.8132C34.7664 38.4225 33.7508 39.9304 33.7508 41.3085C33.7508 42.6733 34.9774 43.3233 36.2156 43.7897V43.8116L43.6547 46.135C44.4149 46.4265 44.618 46.7241 44.7172 46.9819C45.0399 47.8093 44.782 49.4475 44.6906 50.0194L44.2375 53.535L41.7227 67.2999C41.7149 67.3374 41.7078 67.3757 41.7016 67.4147L41.6836 67.514C41.5024 68.7757 42.4289 69.9999 44.1836 69.9999C45.7149 69.9999 46.3906 68.9429 46.6836 67.5046C46.6836 67.5046 48.8711 55.1944 49.9649 55.1944C51.0586 55.1944 53.3117 67.5046 53.3117 67.5046C53.6047 68.9429 54.2805 69.9999 55.8117 69.9999C57.5711 69.9999 58.4977 68.7702 58.3117 67.5046C58.2953 67.3968 58.2758 67.2905 58.2524 67.1874L55.7031 53.5366L55.2508 50.021C54.9234 47.9733 55.1867 47.2968 55.2758 47.1382C55.2782 47.1344 55.2803 47.1305 55.282 47.1265C55.3664 46.9702 55.7508 46.6202 56.6477 46.2835L63.6227 43.8452C63.6655 43.8338 63.7078 43.8202 63.7492 43.8046C64.9992 43.3358 66.2492 42.6874 66.2492 41.31C66.2492 39.9327 65.2344 38.4225 63.75 38.8124Z" fill="white"/>
</g>
<defs>
<clipPath id="clip0_231_804">
<rect width="40" height="40" fill="white" transform="translate(30 30)"/>
</clipPath>
</defs>
</svg>
