<svg width="129" height="45" viewBox="0 0 129 45" fill="none" xmlns="http://www.w3.org/2000/svg">
<path d="M4.10449 40.073C1.29742 30.8348 -2.25694 16.2073 1.90028 7.08304C5.13437 -0.614411 16.9655 -2.81454 22.1903 4.39133C25.9142 9.64886 25.3867 16.3452 23.7539 22.0343C22.4666 26.0569 16.3124 24.6601 17.0346 20.5296C17.7756 16.6929 18.1524 12.1727 15.7095 9.00741C15.4018 8.64172 14.9622 8.33598 14.4912 8.23407C13.6937 7.98827 11.7721 8.41991 11.2886 9.07335C8.76409 12.2267 10.1142 18.9769 10.8553 22.8436C11.8537 27.3758 13.3232 32.0158 15.0753 36.3562C16.281 39.2037 14.8429 42.441 11.86 43.592C8.72012 44.821 5.09041 43.1664 4.11076 40.067L4.10449 40.073Z" fill="#4855A1"/>
<path d="M17.0883 20.6031C17.8507 17.3045 18.9034 14.2663 20.1074 11.1165C20.7608 9.44857 21.6381 7.45824 22.9752 6.00115C26.6718 1.85929 33.6355 1.96469 36.8966 6.56539C39.6918 10.1244 38.8508 15.1219 37.5863 19.053C36.8966 20.8883 36.1645 22.8724 35.7289 24.7511C35.6382 25.117 35.493 25.8052 35.4325 26.1524C35.2812 27.1135 35.3478 28.2296 35.5595 29.1162C35.9286 31.2863 37.9251 32.1606 39.7523 31.3669C41.6157 30.5795 41.5492 27.6653 40.3754 26.3136C39.964 25.83 39.3106 25.4332 38.5362 25.179C36.1464 24.4039 33.0245 24.8007 30.6528 25.892C28.136 27.0825 26.3633 29.358 25.3226 32.0428C23.9129 35.6824 23.7375 39.8801 24.4695 43.8669C24.6753 45.076 22.9449 45.479 22.6363 44.27C21.6562 40.0351 21.5655 35.4654 22.9873 31.1499C24.0279 27.9071 26.2785 24.7821 29.346 23.1762C34.4221 20.3985 43.4368 20.3365 44.8223 27.5041C46.2865 34.3989 38.3668 38.516 33.3814 34.0641C29.5456 30.1579 30.6468 24.3481 32.0807 19.6668C32.6494 17.8377 33.2967 16.021 33.3572 14.0679C33.4601 12.3441 33.5508 11.3397 32.5586 10.1368C30.9251 8.17129 28.0633 8.77892 26.9985 10.9801C25.6191 13.9935 24.3969 18.5631 23.7254 22.0726C22.7089 26.6795 16.1687 25.241 17.0883 20.6093V20.6031Z" fill="#4855A1"/>
<path d="M64.6661 31.754C64.6661 33.2488 63.9078 33.9925 62.3987 33.9925C61.6623 33.9925 61.079 33.8047 60.6489 33.4291C60.2187 33.0535 60 32.4977 60 31.7615V17.9775C60 15.3484 60.5468 13.3653 61.6331 12.0207C62.7267 10.6761 64.338 10 66.4742 10C68.049 10 69.3613 10.3305 70.3966 10.9991C71.4319 11.6676 72.1245 12.6216 72.4672 13.8685C72.8099 12.6216 73.5025 11.6676 74.5378 10.9991C75.5731 10.3305 76.9 10 78.5185 10C80.7203 10 82.3535 10.6535 83.4106 11.9531C84.4678 13.2526 85 15.2657 85 17.9775V31.431C85 32.3399 84.825 33.0009 84.4824 33.3991C84.1397 33.7972 83.5564 34 82.7326 34C81.9087 34 81.3036 33.7972 80.9172 33.384C80.5308 32.9709 80.3339 32.3249 80.3339 31.431V17.7146C80.3339 15.5136 79.4153 14.4094 77.578 14.4094C76.6521 14.4094 75.9595 14.7249 75.5074 15.3634C75.0554 15.9944 74.8294 17.0009 74.8294 18.3831V31.1005C74.8294 32.0094 74.6544 32.6704 74.3118 33.0685C73.9691 33.4667 73.3858 33.6695 72.562 33.6695C71.7381 33.6695 71.1403 33.4667 70.7466 33.0535C70.3602 32.6404 70.1633 31.9944 70.1633 31.1005V18.3831C70.1633 15.7315 69.2447 14.4094 67.4074 14.4094C65.5701 14.4094 64.6515 15.5136 64.6515 17.7146V31.769L64.6661 31.754Z" fill="#29235C"/>
<path d="M94.6387 34C92.2774 34 90.4108 33.2749 89.0465 31.8175C87.6822 30.3601 87 28.2356 87 25.4296C87 23.5589 87.2774 22.0725 87.8396 20.9704C88.4018 19.8683 89.1739 19.0852 90.1784 18.6211C91.1754 18.1571 92.3073 17.9178 93.5742 17.9178C94.7136 17.9178 95.6357 18.0556 96.3478 18.3239C97.06 18.5921 97.6147 19.0489 98.027 19.6943C97.8771 19.2592 97.7646 18.8459 97.6897 18.4616C97.6147 18.0773 97.5622 17.6278 97.5322 17.1057C97.5023 16.5837 97.4873 15.9239 97.4873 15.1118V12.429C97.4873 10.8121 98.2069 10 99.6462 10C101.213 10 102 10.8121 102 12.429V25.6109C102 28.4169 101.355 30.5124 100.066 31.9045C98.7766 33.2967 96.97 33.9928 94.6537 33.9928L94.6387 34ZM94.4138 30.2659C95.3133 30.2659 96.018 29.9541 96.5202 29.3305C97.0225 28.707 97.2774 27.5396 97.2774 25.8429C97.2774 24.6973 97.1649 23.8344 96.94 23.2399C96.7151 22.6453 96.3853 22.2393 95.958 22.0073C95.5307 21.7825 95.0135 21.6665 94.4138 21.6665C93.8141 21.6665 93.2969 21.7825 92.8696 22.0073C92.4423 22.2393 92.1124 22.6453 91.8875 23.2399C91.6627 23.8344 91.5502 24.6973 91.5502 25.8429C91.5502 27.5468 91.8051 28.707 92.3073 29.3305C92.8096 29.9541 93.5142 30.2659 94.4138 30.2659Z" fill="#29235C"/>
<path d="M108.663 31.7619C108.663 33.254 107.91 34 106.396 34C105.665 34 105.079 33.8135 104.644 33.433C104.21 33.0525 104 32.5005 104 31.7619V17.9826C104 15.3565 104.543 13.3721 105.636 12.0218C106.73 10.6789 108.337 10 110.48 10C112.058 10 113.361 10.3357 114.397 10.9997C115.432 11.6637 116.127 12.6261 116.467 13.8719C116.815 12.6261 117.503 11.6711 118.538 10.9997C119.573 10.3357 120.898 10 122.52 10C124.721 10 126.35 10.6491 127.414 11.9546C128.471 13.2527 129 15.267 129 17.9751V31.4262C129 32.3363 128.826 32.9929 128.486 33.3957C128.138 33.7986 127.559 33.9925 126.734 33.9925C125.908 33.9925 125.308 33.7837 124.924 33.3733C124.533 32.963 124.337 32.314 124.337 31.4187V17.7066C124.337 15.5058 123.418 14.4016 121.586 14.4016C120.659 14.4016 119.964 14.715 119.515 15.3565C119.059 15.9907 118.835 16.9978 118.835 18.378V31.0905C118.835 32.0006 118.661 32.6571 118.314 33.06C117.966 33.4629 117.387 33.6568 116.562 33.6568C115.736 33.6568 115.135 33.4479 114.752 33.0376C114.361 32.6273 114.172 31.9782 114.172 31.083V18.3705C114.172 15.7221 113.253 14.4016 111.421 14.4016C109.589 14.4016 108.67 15.5058 108.67 17.7066V31.7544L108.663 31.7619Z" fill="#29235C"/>
</svg>
