<svg width="74" height="24" viewBox="0 0 74 24" fill="none" xmlns="http://www.w3.org/2000/svg">
<path d="M0.384 24V0.735998H7.68L10.928 13.008L12.032 17.408H12.112L13.248 13.008L16.416 0.735998H23.744V24H19.344V11.504L19.712 4.656H19.584L17.552 11.376L13.664 24H10.56L6.576 11.376L4.544 4.656H4.4L4.768 11.504V24H0.384ZM32.0313 24V19.824H35.1513C36.6339 19.824 37.8979 19.568 38.9433 19.056C39.9993 18.5333 40.8046 17.712 41.3593 16.592C41.9139 15.472 42.1912 14.0053 42.1912 12.192C42.1912 10.3573 41.9139 8.90133 41.3593 7.824C40.8153 6.74667 40.0206 5.97867 38.9753 5.52C37.9299 5.05067 36.6499 4.816 35.1353 4.816H31.9033V0.735998H35.5993C37.9139 0.735998 39.9086 1.15733 41.5833 2C43.2686 2.84267 44.5646 4.10667 45.4713 5.792C46.3886 7.47733 46.8473 9.59467 46.8473 12.144C46.8473 14.6827 46.3726 16.832 45.4233 18.592C44.4739 20.352 43.1619 21.696 41.4873 22.624C39.8126 23.5413 37.8819 24 35.6953 24H32.0313ZM28.4153 24V0.735998H32.9113V24H28.4153ZM50.2278 24V0.735998H57.5238L60.7718 13.008L61.8758 17.408H61.9558L63.0918 13.008L66.2598 0.735998H73.5878V24H69.1878V11.504L69.5558 4.656H69.4278L67.3958 11.376L63.5078 24H60.4038L56.4198 11.376L54.3878 4.656H54.2438L54.6118 11.504V24H50.2278Z" fill="#35C89F"/>
</svg>
