<svg width="18" height="19" viewBox="0 0 18 19" fill="none" xmlns="http://www.w3.org/2000/svg">
<path fill-rule="evenodd" clip-rule="evenodd" d="M12 5.75C12 5.33579 11.6642 5 11.25 5C10.8358 5 10.5 5.33579 10.5 5.75C10.5 6.16421 10.8358 6.5 11.25 6.5C11.6642 6.5 12 6.16421 12 5.75ZM11.25 3.5C12.4926 3.5 13.5 4.50736 13.5 5.75C13.5 6.99264 12.4926 8 11.25 8C10.0073 8 9 6.99264 9 5.75C9 4.50736 10.0073 3.5 11.25 3.5Z" fill="black"/>
<path fill-rule="evenodd" clip-rule="evenodd" d="M7.5 13.25C7.5 12.8358 7.16422 12.5 6.75 12.5C6.33577 12.5 6 12.8358 6 13.25C6 13.6642 6.33577 14 6.75 14C7.16422 14 7.5 13.6642 7.5 13.25ZM6.75 11C7.99268 11 9 12.0073 9 13.25C9 14.4927 7.99267 15.5 6.75 15.5C5.50732 15.5 4.5 14.4927 4.5 13.25C4.5 12.0073 5.50732 11 6.75 11Z" fill="black"/>
<path fill-rule="evenodd" clip-rule="evenodd" d="M10.5 5.75C10.5 6.16421 10.1642 6.5 9.75 6.5L3 6.5C2.58577 6.5 2.25 6.16421 2.25 5.75C2.25 5.33579 2.58577 5 3 5L9.75 5C10.1642 5 10.5 5.33579 10.5 5.75Z" fill="black"/>
<path fill-rule="evenodd" clip-rule="evenodd" d="M15.75 5.75C15.75 6.16421 15.4142 6.5 15 6.5L12.75 6.5C12.3358 6.5 12 6.16421 12 5.75C12 5.33579 12.3358 5 12.75 5L15 5C15.4142 5 15.75 5.33579 15.75 5.75Z" fill="black"/>
<path fill-rule="evenodd" clip-rule="evenodd" d="M6 13.25C6 13.6642 5.66422 14 5.25 14L3 14C2.58577 14 2.25 13.6642 2.25 13.25C2.25 12.8358 2.58577 12.5 3 12.5L5.25 12.5C5.66422 12.5 6 12.8358 6 13.25Z" fill="black"/>
<path fill-rule="evenodd" clip-rule="evenodd" d="M15.75 13.25C15.75 13.6642 15.4142 14 15 14L8.25 14C7.83577 14 7.5 13.6642 7.5 13.25C7.5 12.8358 7.83577 12.5 8.25 12.5L15 12.5C15.4142 12.5 15.75 12.8358 15.75 13.25Z" fill="black"/>
</svg>
