<svg width="50" height="50" viewBox="0 0 50 50" fill="none" xmlns="http://www.w3.org/2000/svg">
<g clip-path="url(#clip0_248_4897)">
<path fill-rule="evenodd" clip-rule="evenodd" d="M25.0968 22.9633C24.0604 10.1088 13.3 0 0.178572 0C0.178572 13.0606 10.1938 23.782 22.9633 24.9032C10.1088 25.9395 5.73555e-07 36.7 0 49.8215C13.0606 49.8215 23.782 39.8063 24.9032 27.0368C25.9395 39.8913 36.7 50 49.8215 50C49.8215 36.9395 39.8063 26.218 27.0368 25.0968C39.8913 24.0604 50 13.3 50 0.178572C36.9395 0.178571 26.218 10.1938 25.0968 22.9633ZM24.9994 25.0005L25.0005 25.0007L25.0008 24.9994C25.0003 24.9994 24.9994 24.9994 24.9994 24.9994V25.0005Z" fill="#28305F"/>
</g>
<defs>
<clipPath id="clip0_248_4897">
<rect width="50" height="50" fill="white"/>
</clipPath>
</defs>
</svg>
